HIERARCHY
ROOT Hips
{
  OFFSET 54.3241 96.8584 11.8958
  CHANNELS 6 Xposition Yposition Zposition Zrotation Xrotation Yrotation
  JOINT spine
  {
    OFFSET 0 7.96568 0.458067
    CHANNELS 3 Zrotation Xrotation Yrotation
    JOINT spine1
    {
      OFFSET 0 10.2431 0
      CHANNELS 3 Zrotation Xrotation Yrotation
      JOINT spine2
      {
        OFFSET 0 9.81475 0
        CHANNELS 3 Zrotation Xrotation Yrotation
        JOINT Neck
        {
          OFFSET 0 25.1986 1.20138
          CHANNELS 3 Zrotation Xrotation Yrotation
          JOINT Head
          {
            OFFSET 0 7.61315 0
            CHANNELS 3 Zrotation Xrotation Yrotation
            End Site
            {
              OFFSET 0 18.4281 -6.07733
            }
          }
        }
        JOINT RightShoulder
        {
          OFFSET -4.1327 10.5992 -0.575451
          CHANNELS 3 Zrotation Xrotation Yrotation
          JOINT RightArm
          {
            OFFSET 0 13.9018 0
            CHANNELS 3 Zrotation Xrotation Yrotation
            JOINT RightArmRoll
            {
              OFFSET 0 7.01789 0
              CHANNELS 3 Zrotation Xrotation Yrotation
              JOINT RightForeArm
              {
                OFFSET 0 20.4406 0
                CHANNELS 3 Zrotation Xrotation Yrotation
                JOINT RightForeArmRoll
                {
                  OFFSET 0 7.87516 0
                  CHANNELS 3 Zrotation Xrotation Yrotation
                  JOINT RightHand
                  {
                    OFFSET 0 15.8037 0
                    CHANNELS 3 Zrotation Xrotation Yrotation
                    End Site
                    {
                      OFFSET 0 0 0
                    }
                  }
                }
              }
            }
          }
        }
        JOINT LeftShoulder
        {
          OFFSET 4.1327 10.5992 -0.575451
          CHANNELS 3 Zrotation Xrotation Yrotation
          JOINT LeftArm
          {
            OFFSET 0 13.9018 0
            CHANNELS 3 Zrotation Xrotation Yrotation
            JOINT LeftArmRoll
            {
              OFFSET 0 7.01789 0
              CHANNELS 3 Zrotation Xrotation Yrotation
              JOINT LeftForeArm
              {
                OFFSET 0 20.4406 0
                CHANNELS 3 Zrotation Xrotation Yrotation
                JOINT LeftForeArmRoll
                {
                  OFFSET 0 7.87516 0
                  CHANNELS 3 Zrotation Xrotation Yrotation
                  JOINT LeftHand
                  {
                    OFFSET 0 15.8037 0
                    CHANNELS 3 Zrotation Xrotation Yrotation
                    End Site
                    {
                      OFFSET 0 0 0
                    }
                  }
                }
              }
            }
          }
        }
      }
    }
  }
  JOINT RightUpLeg
  {
    OFFSET -7.06048 -1.2947 -1.0861
    CHANNELS 3 Zrotation Xrotation Yrotation
    JOINT RightUpLegRoll
    {
      OFFSET 0 18.5308 0
      CHANNELS 3 Zrotation Xrotation Yrotation
      JOINT RightLeg
      {
        OFFSET 0 -22.9476 0
        CHANNELS 3 Zrotation Xrotation Yrotation
        JOINT RightLegRoll
        {
          OFFSET 0 23.0226 0
          CHANNELS 3 Zrotation Xrotation Yrotation
          JOINT RightFoot
          {
            OFFSET 0 19.1625 0
            CHANNELS 3 Zrotation Xrotation Yrotation
            JOINT RightToeBase
            {
              OFFSET 0 16.0188 0
              CHANNELS 3 Zrotation Xrotation Yrotation
              End Site
              {
                OFFSET 0.00678979 7.75782 -0.894206
              }
            }
          }
        }
      }
    }
  }
  JOINT LeftUpLeg
  {
    OFFSET 7.06048 -1.2947 -1.0861
    CHANNELS 3 Zrotation Xrotation Yrotation
    JOINT LeftUpLegRoll
    {
      OFFSET 0 18.5309 0
      CHANNELS 3 Zrotation Xrotation Yrotation
      JOINT LeftLeg
      {
        OFFSET 0 22.9475 0
        CHANNELS 3 Zrotation Xrotation Yrotation
        JOINT LeftLegRoll
        {
          OFFSET 0 23.2355 0
          CHANNELS 3 Zrotation Xrotation Yrotation
          JOINT LeftFoot
          {
            OFFSET 0 18.9496 0
            CHANNELS 3 Zrotation Xrotation Yrotation
            JOINT LeftToeBase
            {
              OFFSET 0 16.0188 0
              CHANNELS 3 Zrotation Xrotation Yrotation
              End Site
              {
                OFFSET -0.0304289 7.75782 -0.894206
              }
            }
          }
        }
      }
    }
  }
}
MOTION
Frames: 10
Frame Time: 0.00208333
52.5892 96.7442 12.3603 -0.0602732 -4.24153 3.81625 -0.42939 -1.37438 -0.428347 -0.864549 1.25847 -0.809289 -0.855485 2.90337 -0.795237 -37.5084 7.06232 -20.8639 40.8087 14.2822 -31.5239 36.6128 -12.3574 -8.35353 46.0283 35.2403 53.7685 -3.84939e-006 -5.325e-006 -2.8489e-006 -9.38386 8.46718 0.332261 -1.32015e-007 -6.15672e-006 -2.99487 8.0301 -4.9514 0.697651 -68.0835 -0.675892 1.46054 -103.894 19.5044 -1.34982 -8.50288e-007 3.28024e-006 -2.07587e-007 -9.93095 8.61667 1.43505 7.84577e-006 -3.11694e-006 2.99999 -8.02902 -4.95144 -0.697661 178.33 -2.93795 2.98213 180 7.01531e-015 178.855 177.394 5.6059 179.771 -5.35018e-007 -4.00495e-006 0.0718297 -18.9798 68.3204 19.815 8.13649 25.2327 -3.48774 -175.219 -5.07689 -1.81401 4.54188e-006 -4.6773e-006 -1.1791 -2.15637 -7.43318 0.0380268 1.00122e-006 -7.81839e-006 -0.129347 19.4006 68.8839 -20.2942 -8.13649 25.2327 3.48774 
52.6227 96.7285 12.3461 -0.0576002 -4.24297 3.83647 -0.430059 -1.3722 -0.426998 -0.865858 1.26247 -0.80616 -0.856824 2.90736 -0.792085 -37.4909 7.09243 -20.8665 40.8468 14.3339 -31.5564 36.5637 -12.3834 -8.37982 46.2132 35.151 52.9644 -3.84939e-006 -5.325e-006 -2.8489e-006 -8.96525 7.33467 0.11667 -1.32015e-007 -6.15672e-006 -2.99511 8.0301 -4.9514 0.697651 -68.0985 -0.647857 1.44788 -103.851 19.4999 -1.39155 -8.50288e-007 3.28024e-006 -2.07587e-007 -9.92372 8.5413 1.42692 7.84577e-006 -3.11694e-006 2.99999 -8.02902 -4.95144 -0.697661 178.325 -2.93983 2.9835 180 7.01531e-015 178.855 177.396 5.6048 179.77 -5.35018e-007 -4.00495e-006 0.071996 -18.9754 68.3153 19.8102 8.13649 25.2327 -3.48774 -175.225 -5.05643 -1.80843 4.54188e-006 -4.6773e-006 -1.17917 -2.15285 -7.46146 0.0381913 1.00122e-006 -7.81839e-006 -0.129537 19.4057 68.8896 -20.2997 -8.13649 25.2327 3.48774 
52.6272 96.7384 12.3483 -0.0548596 -4.24394 3.85729 -0.43069 -1.37004 -0.425752 -0.867093 1.26645 -0.803252 -0.858088 2.91134 -0.789155 -37.4744 7.12299 -20.8689 40.8854 14.3839 -31.5884 36.5149 -12.4082 -8.40503 46.4128 35.057 52.1624 -3.84939e-006 -5.325e-006 -2.8489e-006 -8.5477 6.27679 -0.0830716 -1.32015e-007 -6.15672e-006 -2.9957 8.0301 -4.9514 0.697651 -68.1144 -0.619408 1.43512 -103.806 19.4954 -1.43515 -8.50288e-007 3.28024e-006 -2.07587e-007 -9.91515 8.46665 1.41887 7.84577e-006 -3.11694e-006 2.99999 -8.02902 -4.95144 -0.697661 178.32 -2.94097 2.98473 180 7.01531e-015 178.855 177.399 5.60413 179.769 -5.35018e-007 -4.00495e-006 0.0721657 -18.9714 68.3106 19.8057 8.13649 25.2327 -3.48774 -175.23 -5.03567 -1.80319 4.54188e-006 -4.6773e-006 -1.17924 -2.14968 -7.48917 0.0383668 1.00122e-006 -7.81839e-006 -0.129714 19.4106 68.895 -20.3048 -8.13649 25.2327 3.48774 
52.6103 96.7301 12.3479 -0.0520602 -4.24451 3.87865 -0.431273 -1.3679 -0.424631 -0.868235 1.27044 -0.80062 -0.859256 2.91533 -0.786503 -37.4592 7.154 -20.8711 40.9248 14.4323 -31.6201 36.4666 -12.4315 -8.42884 46.6294 34.9604 51.3661 -3.84939e-006 -5.325e-006 -2.8489e-006 -8.13304 5.30416 -0.264626 -1.32015e-007 -6.15672e-006 -2.99667 8.0301 -4.9514 0.697651 -68.1311 -0.5905 1.42223 -103.761 19.4907 -1.48079 -8.50288e-007 3.28024e-006 -2.07587e-007 -9.90503 8.39286 1.41091 7.84577e-006 -3.11694e-006 2.99999 -8.02902 -4.95144 -0.697661 178.315 -2.94137 2.98584 180 7.01531e-015 178.854 177.401 5.60407 179.769 -5.35018e-007 -4.00495e-006 0.0723381 -18.9678 68.3064 19.8017 8.13649 25.2327 -3.48774 -175.236 -5.01505 -1.7984 4.54188e-006 -4.6773e-006 -1.1793 -2.147 -7.5157 0.038551 1.00122e-006 -7.81839e-006 -0.129865 19.4147 68.8996 -20.3093 -8.13649 25.2327 3.48774 
52.6286 96.7327 12.3447 -0.0492103 -4.24474 3.90053 -0.4318 -1.36576 -0.423657 -0.869263 1.27445 -0.798318 -0.860308 2.91934 -0.784183 -37.4456 7.18547 -20.8728 40.9647 14.4791 -31.6512 36.4192 -12.453 -8.45096 46.8657 34.8633 50.5789 -3.84939e-006 -5.325e-006 -2.8489e-006 -7.72298 4.4274 -0.425578 -1.32015e-007 -6.15672e-006 -2.99808 8.0301 -4.9514 0.697651 -68.1486 -0.561087 1.4092 -103.715 19.4857 -1.52867 -8.50288e-007 3.28024e-006 -2.07587e-007 -9.89314 8.32012 1.40304 7.84577e-006 -3.11694e-006 2.99999 -8.02902 -4.95144 -0.697661 178.311 -2.94102 2.98684 180 7.01531e-015 178.854 177.404 5.60468 179.768 -5.35018e-007 -4.00495e-006 0.0725126 -18.9646 68.3028 19.7982 8.13649 25.2327 -3.48774 -175.241 -4.99502 -1.79413 4.54188e-006 -4.6773e-006 -1.17936 -2.1449 -7.54046 0.0387417 1.00122e-006 -7.81839e-006 -0.129977 19.4179 68.9032 -20.3127 -8.13649 25.2327 3.48774 
52.6524 96.7341 12.3368 -0.0463185 -4.2447 3.92288 -0.432259 -1.36362 -0.422853 -0.87016 1.27852 -0.796402 -0.861225 2.92341 -0.782251 -37.4338 7.2174 -20.874 41.0053 14.5244 -31.6819 36.3729 -12.4724 -8.47108 47.1245 34.7678 49.8043 -3.84939e-006 -5.325e-006 -2.8489e-006 -7.31911 3.6571 -0.563432 -1.32015e-007 -6.15672e-006 -2.99999 8.0301 -4.9514 0.697651 -68.1669 -0.531126 1.396 -103.668 19.4802 -1.57897 -8.50288e-007 3.28024e-006 -2.07587e-007 -9.87927 8.24859 1.39529 7.84577e-006 -3.11694e-006 2.99999 -8.02902 -4.95144 -0.697661 178.306 -2.93992 2.98775 180 7.01531e-015 178.854 177.407 5.60616 179.768 -5.35018e-007 -4.00495e-006 0.0726884 -18.9621 68.2998 19.7954 8.13649 25.2327 -3.48774 -175.245 -4.97601 -1.79049 4.54188e-006 -4.6773e-006 -1.17942 -2.14352 -7.56284 0.0389368 1.00122e-006 -7.81839e-006 -0.130038 19.4199 68.9055 -20.3149 -8.13649 25.2327 3.48774 
52.6502 96.7326 12.3347 -0.0433993 -4.2439 3.9461 -0.432677 -1.36156 -0.422214 -0.870964 1.28247 -0.794825 -0.862047 2.92736 -0.78066 -37.4238 7.24969 -20.875 41.0466 14.568 -31.7123 36.3242 -12.4901 -8.48976 47.4013 34.6778 49.0203 -3.84939e-006 -5.325e-006 -2.8489e-006 -6.89165 2.9921 -0.679862 -1.32015e-007 -6.15672e-006 -3.00268 8.0301 -4.9514 0.697651 -68.1865 -0.500825 1.38279 -103.62 19.475 -1.63149 -8.50288e-007 3.28024e-006 -2.07587e-007 -9.86407 8.17767 1.38759 7.84577e-006 -3.11694e-006 2.99999 -8.02902 -4.95144 -0.697661 178.302 -2.93782 2.98843 180 7.01531e-015 178.854 177.409 5.60805 179.767 -5.35018e-007 -4.00495e-006 0.0728693 -18.9599 68.2972 19.7929 8.13649 25.2327 -3.48774 -175.25 -4.95653 -1.78748 4.54188e-006 -4.6773e-006 -1.17947 -2.14279 -7.58432 0.0391441 1.00122e-006 -7.81839e-006 -0.130055 19.4212 68.907 -20.3163 -8.13649 25.2327 3.48774 
52.6666 96.735 12.3377 -0.0404547 -4.24191 3.97053 -0.433083 -1.35965 -0.421714 -0.871727 1.28616 -0.793488 -0.862826 2.93105 -0.77931 -37.4152 7.28224 -20.8762 41.0886 14.6095 -31.7425 36.2699 -12.5069 -8.50775 47.6898 34.5933 48.2069 -3.84939e-006 -5.325e-006 -2.8489e-006 -6.41482 2.41932 -0.779223 -1.32015e-007 -6.15672e-006 -3.0063 8.0301 -4.9514 0.697651 -68.2081 -0.47039 1.36972 -103.569 19.4707 -1.68589 -8.50288e-007 3.28024e-006 -2.07587e-007 -9.84827 8.10676 1.37988 7.84577e-006 -3.11694e-006 2.99999 -8.02902 -4.95144 -0.697661 178.298 -2.93451 2.98878 180 7.01531e-015 178.854 177.412 5.60986 179.767 -5.35018e-007 -4.00495e-006 0.0730593 -18.9577 68.2947 19.7904 8.13649 25.2327 -3.48774 -175.254 -4.93499 -1.78502 4.54188e-006 -4.6773e-006 -1.17952 -2.14252 -7.60667 0.0393719 1.00122e-006 -7.81839e-006 -0.13005 19.4225 68.9085 -20.3178 -8.13649 25.2327 3.48774 
52.6852 96.7349 12.3343 -0.0374749 -4.23889 3.99603 -0.433474 -1.35787 -0.421338 -0.872449 1.28964 -0.79237 -0.863562 2.93453 -0.77818 -37.4079 7.3151 -20.8775 41.1313 14.6492 -31.7724 36.2112 -12.5227 -8.52506 47.9901 34.5107 47.3698 -3.84939e-006 -5.325e-006 -2.8489e-006 -5.89649 1.93149 -0.862954 -1.32015e-007 -6.15672e-006 -3.01071 8.0301 -4.9514 0.697651 -68.2312 -0.439769 1.35674 -103.515 19.4673 -1.7421 -8.50288e-007 3.28024e-006 -2.07587e-007 -9.83176 8.03596 1.37218 7.84577e-006 -3.11694e-006 2.99999 -8.02902 -4.95144 -0.697661 178.294 -2.93011 2.98884 180 7.0153e-015 178.854 177.414 5.61169 179.767 -5.35018e-007 -4.00495e-006 0.0732572 -18.9557 68.2922 19.7881 8.13649 25.2327 -3.48774 -175.257 -4.91166 -1.78302 4.54188e-006 -4.6773e-006 -1.17957 -2.14266 -7.62973 0.0396187 1.00122e-006 -7.81839e-006 -0.130028 19.4238 68.91 -20.3192 -8.13649 25.2327 3.48774 
52.6917 96.7449 12.332 -0.0344497 -4.23497 4.02248 -0.433847 -1.35618 -0.421071 -0.873127 1.29294 -0.79145 -0.864253 2.93784 -0.777248 -37.4016 7.34831 -20.8788 41.1747 14.687 -31.802 36.1494 -12.5376 -8.54168 48.3019 34.4272 46.515 -3.84939e-006 -5.325e-006 -2.8489e-006 -5.34476 1.5213 -0.932471 -1.32015e-007 -6.15672e-006 -3.01574 8.0301 -4.9514 0.697651 -68.2558 -0.408912 1.3438 -103.46 19.4645 -1.80007 -8.50288e-007 3.28024e-006 -2.07587e-007 -9.81445 7.96538 1.3645 7.84577e-006 -3.11694e-006 2.99999 -8.02902 -4.95144 -0.697661 178.291 -2.92472 2.98866 180 7.0153e-015 178.853 177.416 5.61362 179.766 -5.35018e-007 -4.00495e-006 0.073462 -18.9537 68.2899 19.7859 8.13649 25.2327 -3.48774 -175.259 -4.88682 -1.78142 4.54188e-006 -4.6773e-006 -1.17963 -2.14315 -7.65335 0.039883 1.00122e-006 -7.81839e-006 -0.129995 19.425 68.9114 -20.3206 -8.13649 25.2327 3.48774 
